<svg width="28" height="28" viewBox="0 0 28 28" fill="none" xmlns="http://www.w3.org/2000/svg">
<path d="M14.0248 27.4549C21.4694 27.4549 27.5045 21.4199 27.5045 13.9753C27.5045 6.53065 21.4694 0.495605 14.0248 0.495605C6.58021 0.495605 0.545166 6.53065 0.545166 13.9753C0.545166 21.4199 6.58021 27.4549 14.0248 27.4549Z" fill="#C5281C"/>
<path d="M16.6019 12.0425H14.8674V10.9027C14.8674 10.4567 15.1647 10.3576 15.3629 10.3576C15.5612 10.3576 16.6019 10.3576 16.6019 10.3576V8.47437H14.9169C13.0337 8.47437 12.5877 9.86198 12.5877 10.8036V12.0425H11.4974V13.9753H12.5877C12.5877 16.4531 12.5877 19.4761 12.5877 19.4761H14.8674C14.8674 19.4761 14.8674 16.4531 14.8674 13.9753H16.4036L16.6019 12.0425Z" fill="white"/>
</svg>
