<svg width="28" height="28" viewBox="0 0 28 28" fill="none" xmlns="http://www.w3.org/2000/svg">
<path d="M13.9035 0.684082C21.1449 0.684082 27.0345 6.64569 27.0345 13.9755C27.0345 21.3054 21.1449 27.267 13.9035 27.267C6.66212 27.267 0.772461 21.3054 0.772461 13.9755C0.820737 6.59683 6.66212 0.684082 13.9035 0.684082Z" fill="#C5281C"/>
<path d="M16.8966 8.64924C17.4759 8.64924 18.0552 8.89356 18.4897 9.33335C18.9241 9.77314 19.1655 10.3595 19.1655 10.9459V17.0052C19.1655 17.5916 18.9241 18.178 18.4897 18.6178C18.0552 19.0576 17.4759 19.3019 16.8966 19.3019H10.9103C10.331 19.3019 9.75173 19.0576 9.31725 18.6178C8.88277 18.178 8.64139 17.5916 8.64139 17.0052V10.897C8.64139 10.3107 8.88277 9.72427 9.31725 9.28448C9.75173 8.84469 10.331 8.60037 10.9103 8.60037H16.8966V8.64924ZM16.8966 7.1344H10.9103C8.88276 7.1344 7.19312 8.84469 7.19312 10.897V16.9564C7.19312 19.0087 8.88276 20.719 10.9103 20.719H16.8966C18.9242 20.719 20.6138 19.0087 20.6138 16.9564V10.897C20.6138 8.84469 18.9242 7.1344 16.8966 7.1344Z" fill="white"/>
<path d="M17.4276 11.3857C17.9075 11.3857 18.2965 10.9919 18.2965 10.5062C18.2965 10.0204 17.9075 9.62659 17.4276 9.62659C16.9476 9.62659 16.5586 10.0204 16.5586 10.5062C16.5586 10.9919 16.9476 11.3857 17.4276 11.3857Z" fill="white"/>
<path d="M13.9034 11.7766C15.062 11.7766 16.0275 12.7539 16.0275 13.9267C16.0275 15.0995 15.062 16.0768 13.9034 16.0768C12.7448 16.0768 11.7793 15.0995 11.7793 13.9267C11.7793 12.7539 12.7448 11.7766 13.9034 11.7766ZM13.9034 10.4084C11.9724 10.4084 10.3793 12.021 10.3793 13.9756C10.3793 15.9302 11.9724 17.5428 13.9034 17.5428C15.8344 17.5428 17.4275 15.9302 17.4275 13.9756C17.4275 12.021 15.8344 10.4084 13.9034 10.4084Z" fill="white"/>
</svg>
