<svg width="28" height="28" viewBox="0 0 28 28" fill="none" xmlns="http://www.w3.org/2000/svg">
<g clip-path="url(#clip0)">
<path d="M14.3438 26.7227C21.7231 26.7227 27.7052 20.7406 27.7052 13.3613C27.7052 5.98204 21.7231 -6.10352e-05 14.3438 -6.10352e-05C6.96453 -6.10352e-05 0.982422 5.98204 0.982422 13.3613C0.982422 20.7406 6.96453 26.7227 14.3438 26.7227Z" fill="#C5281C"/>
<path d="M10.6105 18.9613H8.15436V11.1017H10.6105V18.9613ZM9.3333 10.1192C8.44909 10.1192 7.85962 9.52975 7.85962 8.74379C7.85962 7.95782 8.44909 7.36835 9.38243 7.36835C10.2666 7.36835 10.8561 7.95782 10.8561 8.74379C10.807 9.48063 10.2666 10.1192 9.3333 10.1192ZM20.4351 18.9613H17.6351V14.8841C17.6351 13.8034 17.193 13.1157 16.2596 13.1157C15.5228 13.1157 15.1298 13.6069 14.9333 14.0982C14.8842 14.2455 14.8842 14.4912 14.8842 14.7368V19.0105H12.1333C12.1333 19.0105 12.1824 11.7894 12.1333 11.1508H14.8842V12.3789C15.0315 11.8385 15.9158 11.0526 17.3403 11.0526C19.1087 11.0526 20.4351 12.1824 20.4351 14.6385V18.9613Z" fill="white"/>
</g>
<defs>
<clipPath id="clip0">
<rect width="28" height="28" fill="white"/>
</clipPath>
</defs>
</svg>
