<svg width="28" height="28" viewBox="0 0 28 28" fill="none" xmlns="http://www.w3.org/2000/svg">
<path d="M14 26.6933C21.1292 26.6933 26.9085 21.0103 26.9085 14C26.9085 6.98965 21.1292 1.30664 14 1.30664C6.87088 1.30664 1.09155 6.98965 1.09155 14C1.09155 21.0103 6.87088 26.6933 14 26.6933Z" fill="#C5281C"/>
<path d="M19.6 11.34C19.6 11.2933 19.6 11.2466 19.5526 11.2V11.1533C19.4102 10.7333 18.9831 10.4066 18.5085 10.4066H18.6034C18.6034 10.4066 16.6577 10.1266 14.0475 10.1266C11.4373 10.1266 9.49157 10.4066 9.49157 10.4066C9.01699 10.4066 8.58987 10.7333 8.44749 11.1533V11.2C8.44749 11.2466 8.4475 11.2933 8.40005 11.34C8.30513 11.8533 8.21021 12.8333 8.21021 14.0466C8.21021 15.26 8.35259 16.24 8.40005 16.7533C8.40005 16.8 8.40004 16.8466 8.44749 16.8933V16.94C8.58987 17.36 9.01699 17.6866 9.49157 17.6866H9.39665C9.39665 17.6866 11.3424 17.9666 13.9526 17.9666C16.5628 17.9666 18.5085 17.6866 18.5085 17.6866C18.9831 17.6866 19.4102 17.36 19.5526 16.94V16.8933C19.5526 16.8466 19.5526 16.8 19.6 16.7533C19.6475 16.24 19.7899 15.26 19.7899 14.0466C19.7899 12.8333 19.695 11.8533 19.6 11.34ZM15.7085 14.28L13.3831 15.96C13.3356 16.0066 13.2882 16.0066 13.2407 16.0066C13.1933 16.0066 13.1458 16.0066 13.0983 15.96C13.0034 15.9133 12.956 15.82 12.956 15.7266V12.3666C12.956 12.2733 13.0034 12.18 13.0983 12.1333C13.1933 12.0866 13.2882 12.0866 13.3831 12.1333L15.7085 13.8133C15.8034 13.86 15.8034 13.9533 15.8034 14.0466C15.8509 14.14 15.8034 14.2333 15.7085 14.28Z" fill="white"/>
</svg>
